<svg width="28" height="28" viewBox="0 0 28 28" fill="none" xmlns="http://www.w3.org/2000/svg">
<path d="M4.33088 11.1985H23.6723C24.1759 11.1985 24.5859 11.6074 24.5859 12.1096V23.1946C24.5859 24.5855 23.4528 25.7155 22.0581 25.7155H5.94508C4.55041 25.7155 3.41724 24.5855 3.41724 23.1946V12.1096C3.41724 11.6074 3.82724 11.1985 4.33088 11.1985Z" fill="#D4574B" stroke="#91000F" stroke-width="2.13055" stroke-miterlimit="10"/>
<path d="M4.2502 5H23.7498C24.9927 5 26 6.00451 26 7.24404V11.0624C26 11.951 25.2768 12.6722 24.3858 12.6722H3.6142C2.72316 12.6722 2 11.951 2 11.0624V7.24404C2 6.00451 3.00726 5 4.2502 5Z" fill="#388DC3" stroke="#0B3B5D" stroke-width="2.13055" stroke-miterlimit="10"/>
<path d="M10 6H7V24.7H10V6Z" fill="#253740"/>
<path d="M21 6H18V24.7H21V6Z" fill="#253740"/>
<path d="M15 13.8H13V24.8H15V13.8Z" fill="#B93433"/>
</svg>
