<svg width="58" height="58" viewBox="0 0 58 58" fill="none" xmlns="http://www.w3.org/2000/svg">
<g clip-path="url(#clip0_460_6324)">
<path d="M12.5083 21.6206L21.3203 29.607" stroke="#216C71" stroke-width="2.66319" stroke-linecap="round" stroke-linejoin="round"/>
<path d="M19.2007 13.395L26.3255 29.6069" stroke="#216C71" stroke-width="2.66319" stroke-linecap="round" stroke-linejoin="round"/>
<path d="M47.3378 21.6206L38.5305 29.607" stroke="#216C71" stroke-width="2.66319" stroke-linecap="round" stroke-linejoin="round"/>
<path d="M40.0721 13.395L32.9473 29.6069" stroke="#216C71" stroke-width="2.66319" stroke-linecap="round" stroke-linejoin="round"/>
<path d="M13.3871 23.317C13.6174 23.0686 16.9025 19.6753 20.7187 20.8424C21.3814 21.0439 22.1004 20.8189 22.5375 20.2846C23.4493 19.1598 25.3903 17.5288 28.9997 17.5288C33.0931 17.5288 33.9391 17.9084 36.2279 20.1393C36.6931 20.594 37.3276 20.8377 37.9762 20.8189C39.9689 20.758 44.3772 20.922 45.914 23.4108L46.8634 23.7998C46.8634 23.7998 52.1647 15.4478 43.5219 11.8295C34.879 8.21126 20.6059 5.49287 12.3814 15.0822C4.15685 24.6715 13.3871 23.317 13.3871 23.317Z" fill="#216C71"/>
<path d="M45.9138 23.4063C46.2804 21.4238 45.6271 19.5256 44.1279 18.1148C43.9305 17.932 43.7895 17.6836 43.5593 17.6227C42.5817 16.3994 41.059 15.5886 39.5692 15.0871C38.93 14.8715 38.2767 14.759 37.5953 14.7778C37.365 14.5341 37.0501 14.3747 36.7117 14.2247C32.3316 12.275 26.8235 12.2188 22.3963 14.0654C21.87 14.2857 21.4141 14.5341 21.0052 14.8575C20.2814 14.7262 19.6 15.0121 18.942 15.2137C17.6684 15.6074 16.5264 16.3807 15.53 17.3228C15.3984 17.4493 15.248 17.5524 15.2057 17.7071C13.4762 19.2022 12.4987 21.1754 13.2882 23.4672C12.917 23.7906 12.4282 23.8234 11.9159 23.7625C9.67883 23.5 7.90233 22.0143 7.26787 19.8443C6.80259 18.2508 6.97649 16.601 7.64385 15.0871C7.15977 12.6171 7.78484 10.1612 9.36865 8.23492C11.3566 5.81649 14.2846 4.10579 17.424 3.81051C21.1838 0.0235238 28.6282 -0.477971 33.577 0.332857C36.2653 0.773423 39.4 1.8889 41.3222 3.87613C44.377 4.00736 47.5634 5.72744 49.4809 8.06619C51.154 10.105 51.7321 12.6593 51.2292 15.223C52.0893 16.9009 52.282 18.7851 51.5817 20.5192C50.7969 22.4549 48.9405 23.6641 46.8726 23.8047C46.4778 23.7813 46.1676 23.6594 45.9232 23.4157L45.9138 23.4063ZM37.9196 12.964C38.1593 13.1186 38.3096 13.2077 38.5728 12.9874C40.1895 11.6376 41.1577 9.58942 40.9885 7.46158C40.8945 6.25706 40.3493 5.24938 39.4141 4.52292C37.9478 3.38401 36.2794 2.62942 34.4418 2.23573C30.9076 1.47645 27.27 1.51395 23.764 2.38102C22.1049 2.78878 20.6339 3.46837 19.3086 4.50886C16.423 6.78199 17.8329 11.347 20.4553 13.203C21.5504 12.4906 22.6125 11.9329 23.8344 11.5673C28.2616 10.2596 33.9718 10.4237 37.9196 12.964ZM49.3587 20.0505C49.9603 18.8507 49.965 17.4727 49.3963 16.2588C49.2929 16.0339 49.2412 15.8276 49.2882 15.5792C49.7206 13.4514 49.4386 11.1689 48.0334 9.43007C46.6799 7.75217 44.8611 6.50546 42.8073 5.8493C42.7133 5.82118 42.6287 5.84461 42.5911 5.87274C42.5535 5.90086 42.4877 5.98991 42.5112 6.07427C43.3666 8.74579 42.5629 11.3939 40.7676 13.5639C43.5123 14.1169 45.8715 16.2073 47.07 18.6304C47.4788 19.4506 47.6386 20.3786 47.5305 21.241C47.4083 22.2252 48.7948 21.166 49.354 20.0505H49.3587ZM11.4694 21.3722C11.272 20.2895 11.4553 19.3006 11.9347 18.3632C13.011 16.1464 15.5441 14.1497 18.0397 13.6295C16.1739 11.5532 15.3185 8.83015 16.1786 6.19144C16.2209 6.08364 16.2021 5.97116 16.1504 5.93366C16.0987 5.89617 15.9906 5.85867 15.8966 5.89148C12.3765 7.17568 8.89868 10.4003 9.43915 14.445L9.62714 15.8558C8.72479 17.8149 9.12897 20.5051 11.1264 21.6253C11.2063 21.6722 11.319 21.6675 11.366 21.644C11.413 21.6206 11.4882 21.5034 11.4647 21.3722H11.4694Z" fill="#216C71"/>
<path d="M37.9198 12.9637C33.9673 10.4235 28.2618 10.2594 23.8347 11.5671C22.6127 11.9279 21.5506 12.4857 20.4556 13.2028C17.8284 11.3468 16.4232 6.78177 19.3088 4.50864C20.6342 3.46346 22.1052 2.78856 23.7642 2.3808C27.2655 1.51841 30.9078 1.47623 34.442 2.23551C36.2843 2.63389 37.948 3.38379 39.4143 4.5227C40.3496 5.24916 40.8947 6.25684 40.9887 7.46136C41.1579 9.5892 40.1898 11.6374 38.5731 12.9872C38.3099 13.2075 38.1642 13.1184 37.9198 12.9637ZM24.8075 5.32415C27.4629 4.67268 30.0947 4.60706 32.7548 4.9492C33.1637 5.00076 33.6383 4.83203 33.8263 4.48989C34.1036 3.99777 33.7229 3.28068 33.1073 3.16819C30.1558 2.62452 27.1151 2.76043 24.2013 3.51971C23.2331 3.7728 22.3637 4.08682 21.5036 4.54613C20.9114 4.86015 20.5966 5.49288 20.8832 6.12092C20.9913 6.35526 21.1934 6.48649 21.372 6.53336C21.6352 6.60367 21.7809 6.45369 21.9924 6.34589C22.8806 5.88189 23.7877 5.57724 24.8075 5.32415ZM36.8013 5.94282C37.1584 5.93344 37.4357 5.72253 37.5109 5.49757C37.6002 5.22573 37.572 4.92577 37.3699 4.7008C36.7966 4.06338 35.5934 3.74468 35.2597 4.48989C34.8838 5.31946 36.1292 5.96157 36.8013 5.94282Z" fill="#7DCFAF"/>
<path d="M49.3586 20.0503C48.7994 21.1658 47.4129 22.225 47.5351 21.2408C47.6432 20.3737 47.4834 19.4504 47.0746 18.6302C45.8761 16.2118 43.5169 14.1214 40.7722 13.5637C42.5675 11.3937 43.3712 8.74561 42.5158 6.07409C42.4876 5.99441 42.5581 5.90068 42.5957 5.87255C42.6333 5.84443 42.7179 5.821 42.8119 5.84912C44.8657 6.50528 46.6798 7.7473 48.038 9.42989C49.4385 11.1687 49.7205 13.4512 49.2928 15.5791C49.2411 15.8275 49.2928 16.0337 49.4009 16.2587C49.9696 17.4726 49.9649 18.8505 49.3633 20.0503H49.3586Z" fill="#7DCFAF"/>
<path d="M11.4694 21.372C11.4929 21.5033 11.4224 21.6204 11.3707 21.6439C11.319 21.6673 11.2109 21.6673 11.131 21.6251C9.13359 20.5049 8.72941 17.8147 9.63176 15.8556L9.44377 14.4448C8.9033 10.4001 12.3858 7.1755 15.9012 5.89129C15.9952 5.85849 16.0986 5.89129 16.155 5.93348C16.2114 5.97566 16.2208 6.08346 16.1832 6.19125C15.3231 8.82996 16.1785 11.553 18.0443 13.6293C15.5487 14.1449 13.0156 16.1462 11.9393 18.3631C11.4553 19.3051 11.272 20.2894 11.4741 21.372H11.4694ZM14.6323 9.65485C14.9801 9.33146 15.0224 8.72216 14.6558 8.40346C14.3785 8.15974 13.9414 8.22067 13.6406 8.42689C13.1096 8.79715 12.6443 9.21897 12.1931 9.67828C11.8923 9.98293 11.8688 10.55 12.2307 10.7938C12.9921 11.3093 13.9884 10.2595 14.6323 9.65485Z" fill="#7DCFAF"/>
<path d="M24.8075 5.32424C23.7876 5.57733 22.8806 5.87729 21.9923 6.34597C21.7808 6.45846 21.6351 6.60375 21.3719 6.53345C21.1887 6.48658 20.9866 6.35535 20.8832 6.121C20.6012 5.49765 20.9114 4.86024 21.5035 4.54622C22.3636 4.09159 23.233 3.77288 24.2012 3.51979C27.115 2.76052 30.1558 2.6246 33.1072 3.16828C33.7229 3.28076 34.0988 3.99785 33.8263 4.48997C33.6336 4.83212 33.1589 5.00084 32.7547 4.94929C30.0994 4.60715 27.4628 4.66807 24.8075 5.32424Z" fill="#7DCFAF"/>
<path d="M37.7203 6.99936C36.5776 7.0292 34.4825 6.00717 35.1173 4.68673C35.6808 3.50057 37.7124 4.00786 38.6806 5.02243C39.0218 5.38052 39.0695 5.85796 38.9187 6.29065C38.7917 6.64874 38.3235 6.98444 37.7203 6.99936Z" fill="#B4FFA9"/>
<path d="M14.6323 9.65487C13.9885 10.2595 12.9921 11.3046 12.2308 10.7938C11.8689 10.5501 11.8877 9.98295 12.1932 9.6783C12.6491 9.21899 13.1096 8.79717 13.6407 8.42691C13.9415 8.216 14.3786 8.15976 14.6558 8.40347C15.0224 8.72218 14.9801 9.33147 14.6323 9.65487Z" fill="#B4FFA9"/>
<path d="M15.4221 35.9248H43.5782C44.3114 35.9248 44.9082 36.52 44.9082 37.2512V53.3881C44.9082 55.4128 43.2586 57.0579 41.2283 57.0579H17.7719C15.7416 57.0579 14.092 55.4128 14.092 53.3881V37.2512C14.092 36.52 14.6889 35.9248 15.4221 35.9248Z" fill="#D4574B" stroke="#91000F" stroke-width="2.13055" stroke-miterlimit="10"/>
<path d="M15.3045 29.8132H43.6909C45.5003 29.8132 46.9667 31.2755 46.9667 33.08V38.6386C46.9667 39.9322 45.9139 40.982 44.6168 40.982H14.3787C13.0816 40.982 12.0288 39.9322 12.0288 38.6386V33.08C12.0288 31.2755 13.4951 29.8132 15.3045 29.8132Z" fill="#388DC3" stroke="#0B3B5D" stroke-width="2.13055" stroke-miterlimit="10"/>
<path d="M12.9968 32.5455C12.9968 31.5566 13.8005 30.7551 14.7921 30.7551H44.2031C45.1947 30.7551 45.9984 31.5566 45.9984 32.5455" fill="#76BCEC" fill-opacity="0.6"/>
<path d="M23.219 32.583H19.0269V57.9999H23.219V32.583Z" fill="#253740"/>
<path d="M39.9734 32.583H35.7812V57.9999H39.9734V32.583Z" fill="#253740"/>
<path d="M23.219 30.741H19.0269V32.6017H23.219V30.741Z" fill="#0B3B5D"/>
<path d="M39.9734 30.741H35.7812V32.6017H39.9734V30.741Z" fill="#0B3B5D"/>
<path d="M31.5938 41.929H27.4016V56.1161H31.5938V41.929Z" fill="#B93433"/>
</g>
<defs>
<clipPath id="clip0_460_6324">
<rect width="45" height="58" fill="white" transform="translate(7)"/>
</clipPath>
</defs>
</svg>
