<svg width="100" height="100" viewBox="0 0 100 100" fill="none" xmlns="http://www.w3.org/2000/svg">
<g clip-path="url(#clip0_467_8525)">
<path d="M76.8714 26.4116L44.2068 25.126C43.2732 25.0985 42.5317 24.2979 42.5317 23.3052C42.5317 22.3124 43.2732 21.5072 44.2252 21.4843L76.8714 20.2034C76.9172 20.2034 76.9629 20.2034 77.0087 20.2034C78.7936 20.2034 80.423 21.6628 80.423 23.2594V23.2777C80.423 24.0646 80.0843 24.8378 79.4893 25.4279C78.844 26.0684 77.9652 26.4161 77.0178 26.4161C77.0178 26.4161 76.9217 26.4161 76.876 26.4161L76.8714 26.4116Z" fill="#F97A6E"/>
<path d="M77.0043 21.3379C78.2583 21.3379 79.2744 22.3901 79.2744 23.2548V23.3051C79.2744 24.1698 78.4414 25.2677 77.0134 25.2677C76.9814 25.2677 76.9448 25.2677 76.9127 25.2677L44.2528 23.9822C43.9324 23.973 43.6761 23.6711 43.6761 23.3051C43.6761 22.9391 43.9324 22.6326 44.2528 22.628L76.9127 21.3425C76.9448 21.3425 76.9722 21.3425 77.0043 21.3425M77.0043 19.0504C76.9448 19.0504 76.8807 19.0504 76.8212 19.0504L44.175 20.3314C42.6097 20.3863 41.3877 21.681 41.3877 23.2959C41.3877 24.9109 42.6097 26.2102 44.175 26.2605L76.8258 27.5415C76.8944 27.5415 76.9585 27.5415 77.018 27.5415C79.8282 27.5415 81.5673 25.3364 81.5673 23.2914V23.2319V23.2044C81.5445 20.981 79.4254 19.0413 77.0089 19.0413L77.0043 19.0504Z" fill="#A00D19"/>
<path d="M6.54966 26.4117C4.51299 26.4117 3.14453 24.8059 3.14453 23.3054V23.2367C3.14453 21.6584 4.77387 20.199 6.55882 20.199C6.60458 20.199 6.65035 20.199 6.69612 20.199L39.3515 21.4845C40.2852 21.5074 41.0312 22.308 41.0312 23.3054C41.0312 24.3027 40.2898 25.1033 39.3424 25.1262L6.69612 26.4072C6.64578 26.4072 6.59543 26.4072 6.54966 26.4072V26.4117Z" fill="#F97A6E"/>
<path d="M6.55848 21.338C6.59052 21.338 6.61798 21.338 6.65002 21.338L39.31 22.6236C39.6304 22.6327 39.8867 22.9347 39.8867 23.3006C39.8867 23.6666 39.6304 23.9732 39.31 23.9777L6.65002 25.2633C6.61798 25.2633 6.58137 25.2633 6.54933 25.2633C5.12137 25.2633 4.28839 24.1607 4.28839 23.3006V23.2503C4.28839 22.3857 5.30444 21.3334 6.55848 21.3334M6.55848 19.0505C4.14194 19.0505 2.02288 20.9949 2 23.2229V23.2549V23.2823V23.3098C2 25.3548 3.73918 27.5599 6.54933 27.5599C6.60883 27.5599 6.6729 27.5599 6.7324 27.5599L39.3878 26.2744C40.9531 26.224 42.1751 24.9247 42.1751 23.3098C42.1751 21.6948 40.9531 20.3956 39.3878 20.3452L6.74155 19.0551C6.68206 19.0551 6.62256 19.0551 6.55848 19.0551V19.0505Z" fill="#A00D19"/>
<path d="M41.3746 19H41.5851C42.798 19 43.7866 19.9836 43.7866 21.2005V29.0466H39.1777V21.2005C39.1777 19.9882 40.1617 19 41.3792 19H41.3746Z" fill="#40464E" stroke="#061922" stroke-width="2.3" stroke-linecap="round" stroke-linejoin="round"/>
<path d="M46.6418 28.3238C43.0857 27.6284 39.6348 27.5781 36.3166 28.3238C34.2387 28.7035 32.3394 30.1034 32.3394 32.2994V32.9902C32.3394 35.1862 34.1197 36.9658 36.3166 36.9658H46.6418C48.8387 36.9658 50.6191 35.1862 50.6191 32.9902V32.2994C50.6191 30.1034 48.9668 28.7675 46.6418 28.3238Z" fill="#40464E" stroke="#061922" stroke-width="2.3" stroke-linecap="round" stroke-linejoin="round"/>
<path d="M34.3247 32.1009C31.0969 31.911 27.8876 31.9666 24.7657 32.4623C16.8965 33.7132 9.69041 39.1291 6.66522 46.6623C5.21939 50.2621 4.66685 54.1954 4.77736 58.0686C4.85563 60.7696 5.26083 63.5123 6.47643 65.9168C7.87161 68.6734 10.2337 70.7767 12.8031 72.3843C15.7085 74.2051 18.9087 74.8074 22.247 75.2707C26.3773 75.8451 30.526 75.9007 34.6885 75.9656C39.4542 76.0351 44.2291 76.0212 48.9902 75.7154C52.881 75.4652 57.3843 74.673 60.6719 72.3751C65.3778 69.0764 69.5265 63.4659 67.9701 53.5792L91.5638 50.9848C91.5638 50.9848 95.7171 50.7022 96.2328 45.4809C96.7532 40.2549 97.6741 34.3757 94.4325 33.2406C92.761 32.6569 91.1725 33.148 89.8832 34.3804C88.7873 35.432 88.1242 36.808 87.3461 38.0821C86.7521 39.0504 86.0798 40.8201 84.7906 41.0055C83.865 41.1398 58.8439 35.3764 49.2987 33.9819C44.4041 33.2684 39.3345 32.3882 34.3201 32.0963L34.3247 32.1009Z" fill="#65686D"/>
<path d="M32.0305 32.1773C33.1185 33.1537 33.5012 38.4505 33.5888 39.3401C34.0037 43.5283 33.7225 47.8533 32.2887 51.8408C30.7995 55.9696 27.6138 58.0591 23.211 58.6522C19.532 59.145 15.3781 59.0902 11.7129 58.6385C9.73506 58.3922 6.7153 58.5792 4.88962 57.6805C4.58995 57.5345 4.91728 54.902 4.93112 54.6192C5.0141 53.1182 5.2354 51.6263 5.58117 50.1618C6.33726 46.9865 7.66042 43.7017 9.77194 41.1696C14.9908 34.9238 23.6167 31.6983 31.6939 32.0222C31.8138 32.0268 31.9291 32.0815 32.0351 32.1773H32.0305Z" fill="#A3E1F9"/>
<path d="M9.39599 59.8477C9.39599 59.8477 9.34116 66.8528 20.81 67.5836C32.2788 68.3144 39.2698 67.9746 39.2698 67.9746C39.2698 67.9746 55.9842 68.4773 62.2669 62.4822C68.5496 56.4824 66.0914 52 66.0914 52C66.0914 52 68.7689 52.0559 67.3479 61.528C65.9269 71.0001 59.539 72.7968 57.7342 73.6346C55.9293 74.4724 56.5873 75.0915 50.9077 75.3708C45.2281 75.65 28.6234 76.8835 20.2663 74.8681C11.9091 72.848 10.5977 70.4415 10.5977 70.4415C10.5977 70.4415 5.02778 65.4518 5.84567 59.0052L9.39599 59.8477Z" fill="#40464E"/>
<path d="M67.7637 50.1198L90.4707 48.0312C92.9396 47.8038 95.0424 45.9333 95.4755 43.3992C95.4978 43.2692 95.5157 43.1392 95.5335 43C95.5335 43 96.6631 47.3443 93.9173 50.2034C91.1671 53.0624 68.295 54 68.295 54L67.7637 50.1198Z" fill="#40464E"/>
<path d="M34.3247 32.1009C31.0969 31.911 27.8876 31.9666 24.7657 32.4623C16.8965 33.7132 9.69041 39.1291 6.66522 46.6623C5.21939 50.2621 4.66685 54.1954 4.77736 58.0686C4.85563 60.7696 5.26083 63.5123 6.47643 65.9168C7.87161 68.6734 10.2337 70.7767 12.8031 72.3843C15.7085 74.2051 18.9087 74.8074 22.247 75.2707C26.3773 75.8451 30.526 75.9007 34.6885 75.9656C39.4542 76.0351 44.2291 76.0212 48.9902 75.7154C52.881 75.4652 57.3843 74.673 60.6719 72.3751C65.3778 69.0764 69.5265 63.4659 67.9701 53.5792L91.5638 50.9848C91.5638 50.9848 95.7171 50.7022 96.2328 45.4809C96.7532 40.2549 97.6741 34.3757 94.4325 33.2406C92.761 32.6569 91.1725 33.148 89.8832 34.3804C88.7873 35.432 88.1242 36.808 87.3461 38.0821C86.7521 39.0504 86.0798 40.8201 84.7906 41.0055C83.865 41.1398 58.8439 35.3764 49.2987 33.9819C44.4041 33.2684 39.3345 32.3882 34.3201 32.0963L34.3247 32.1009Z" stroke="#061922" stroke-width="2.3" stroke-linecap="round" stroke-linejoin="round"/>
<mask id="mask0_467_8525" style="mask-type:luminance" maskUnits="userSpaceOnUse" x="5" y="32" width="30" height="28">
<path d="M32.2942 32.4825C33.3743 33.4616 33.7542 38.773 33.8411 39.6652C34.253 43.8649 33.9739 48.202 32.5505 52.2005C31.0722 56.3408 27.9096 58.4361 23.5388 59.0308C19.8865 59.5249 15.7628 59.47 12.1243 59.0171C10.1608 58.7701 7.16303 58.9576 5.35062 58.0564C5.05313 57.91 5.37808 55.2703 5.39181 54.9866C5.47419 53.4815 5.69388 51.9855 6.03714 50.5169C6.78773 47.3327 8.10127 44.0388 10.1974 41.4997C15.3784 35.2366 23.9415 32.0022 31.9601 32.327C32.0791 32.3315 32.1935 32.3864 32.2988 32.4825H32.2942Z" fill="white"/>
</mask>
<g mask="url(#mask0_467_8525)">
<g opacity="0.4">
<path fill-rule="evenodd" clip-rule="evenodd" d="M35.9376 50.4299C37.0086 50.9423 37.2969 51.8619 36.8026 53.184C36.258 54.5565 35.3152 55.531 33.9742 56.1074C33.3838 56.3636 32.624 56.4963 31.6949 56.5146C31.2327 56.5146 30.8299 56.4917 30.4958 56.4414L19.8777 62.311C18.8387 62.7411 18.0881 62.6542 17.6259 62.0457C17.0675 61.3411 16.9394 59.9366 17.2414 57.8276C17.5298 55.8467 18.0103 54.497 18.6785 53.7788L19.5893 53.2755L18.3673 53.2023C17.4062 53.1063 16.5595 52.9873 15.8272 52.8455C13.9736 52.5115 13.136 51.7018 13.31 50.4254C13.104 49.7528 13.1086 49.1078 13.3329 48.4856C13.7951 47.2412 15.0995 46.7425 17.2414 46.9987C17.4153 46.2484 17.7998 45.489 18.3902 44.7204C19.6031 43.1695 21.301 42.346 23.4704 42.25C26.3309 42.1219 28.4225 42.9133 29.7498 44.6243C31.1228 46.3994 31.402 48.8104 30.5873 51.8619C30.9535 52.2142 31.4249 52.356 32.0016 52.2919C32.6423 52.2279 33.1275 51.8848 33.4616 51.2626C34.052 50.192 34.8758 49.913 35.933 50.4254L35.9376 50.4299Z" fill="#009A3E"/>
<path d="M30.4957 56.4463C30.8298 56.492 31.2326 56.5195 31.6948 56.5195C32.6239 56.5012 33.3791 56.3685 33.9741 56.1123C35.3151 55.5358 36.2579 54.5614 36.8025 53.1889C37.2968 51.8622 37.0085 50.9472 35.9375 50.4348C34.8848 49.9224 34.061 50.2015 33.466 51.272C33.1319 51.8942 32.6422 52.2373 32.006 52.3014C31.4294 52.3654 30.9579 52.2236 30.5918 51.8713C31.4065 48.8198 31.1273 46.4089 29.7543 44.6338C28.427 42.9228 26.3354 42.1359 23.4749 42.2594C21.3009 42.3555 19.6075 43.179 18.3947 44.7299C17.8043 45.4984 17.4198 46.2533 17.2459 47.0082C15.104 46.752 13.7996 47.2461 13.3373 48.495C13.113 49.1172 13.1039 49.7669 13.3144 50.4348C13.1405 51.7112 13.9781 52.521 15.8317 52.8549C16.5685 53.0013 17.4152 53.1203 18.3718 53.2118L19.5938 53.285L18.683 53.7882C18.0102 54.5065 17.5342 55.8561 17.2459 57.837C16.9438 59.9461 17.072 61.3506 17.6303 62.0551C18.0926 62.6636 18.8432 62.7505 19.8821 62.3205" stroke="#061922" stroke-width="1.26926" stroke-linecap="round" stroke-linejoin="round"/>
<path fill-rule="evenodd" clip-rule="evenodd" d="M19.8779 50.622L17.5986 50.5488C17.7726 48.9842 18.1982 48.2248 18.871 48.2705C19.4797 48.3025 19.8138 49.0848 19.8779 50.6174V50.622Z" fill="white"/>
<path d="M19.8779 50.6219C19.8138 49.0892 19.4797 48.3069 18.871 48.2749C18.1982 48.2292 17.7771 48.984 17.5986 50.5532" stroke="#061922" stroke-width="1.26926" stroke-linecap="round" stroke-linejoin="round"/>
<path fill-rule="evenodd" clip-rule="evenodd" d="M20.4497 46.7427C20.5595 46.3904 20.8113 46.0381 21.1911 45.6905C21.9417 44.9859 22.9715 44.6428 24.2851 44.6611C25.356 44.6794 26.2577 45.0042 26.9945 45.6447C27.3607 45.965 27.617 46.2852 27.7634 46.6054L27.022 47.5159C26.3034 48.1563 25.4338 48.504 24.4086 48.5681C22.3811 48.7099 21.0584 48.106 20.4543 46.7473L20.4497 46.7427Z" fill="#FED130"/>
<path fill-rule="evenodd" clip-rule="evenodd" d="M20.4497 46.7427C20.5595 46.3904 20.8113 46.0381 21.1911 45.6905C21.9417 44.9859 22.9715 44.6428 24.2851 44.6611C25.356 44.6794 26.2577 45.0042 26.9945 45.6447C27.3607 45.965 27.617 46.2852 27.7634 46.6054L27.022 47.5159C26.3034 48.1563 25.4338 48.504 24.4086 48.5681C22.3811 48.7099 21.0584 48.106 20.4543 46.7473L20.4497 46.7427Z" stroke="#061922" stroke-width="1.26926" stroke-linecap="round" stroke-linejoin="round"/>
<path d="M24.0244 44.6565V48.5864" stroke="#061922" stroke-width="1.26926" stroke-linecap="round" stroke-linejoin="round"/>
<path d="M21.173 50.6724L13.3101 50.4299" stroke="#061922" stroke-width="1.26926" stroke-linecap="round" stroke-linejoin="round"/>
<path fill-rule="evenodd" clip-rule="evenodd" d="M30.3265 65.8383C30.3265 66.5245 30.1846 67.0781 29.8963 67.4898C29.5942 67.9199 29.1686 68.1349 28.624 68.1349C28.2258 68.1349 27.8825 68.0068 27.5942 67.7506C27.2601 67.4487 27.0587 67.0232 26.9946 66.4788C26.8665 65.2161 26.6742 64.4338 26.4179 64.1318C26.2257 63.9077 25.8092 63.8207 25.1731 63.8665C24.5186 63.9122 24.0792 64.0678 23.8549 64.3194C23.5346 64.6854 23.3423 65.4677 23.2783 66.6663C23.2142 67.6866 22.6146 68.1989 21.4796 68.1989C20.3766 68.2127 19.7633 67.2977 19.6351 65.4448C19.4292 62.5535 19.5299 59.5661 19.9464 56.4825L30.4959 56.3865L30.3265 65.8291V65.8383Z" fill="#009A3E"/>
<path d="M30.4959 56.4006L30.3265 65.8433C30.3265 66.5295 30.1846 67.0831 29.8963 67.4948C29.5942 67.9249 29.1686 68.1399 28.624 68.1399C28.2258 68.1399 27.8825 68.0118 27.5942 67.7556C27.2601 67.4537 27.0587 67.0282 26.9946 66.4838C26.8665 65.2211 26.6742 64.4388 26.4179 64.1368C26.2257 63.9127 25.8092 63.8258 25.1731 63.8715C24.5186 63.9172 24.0792 64.0728 23.8549 64.3244C23.5346 64.6904 23.3423 65.4727 23.2783 66.6714C23.2142 67.6916 22.6146 68.204 21.4796 68.204C20.3766 68.2177 19.7633 67.3027 19.6351 65.4498C19.4292 62.5585 19.5299 59.5711 19.9464 56.4876" stroke="#061922" stroke-width="1.26926" stroke-linecap="round" stroke-linejoin="round"/>
</g>
</g>
<path d="M32.3932 33C33.2148 34.5769 33.5184 38.8524 33.5943 39.6408C33.9961 43.7767 33.7238 48.0478 32.3352 51.9854C30.0892 58.3289 23.2488 59.1218 17.4442 58.9867C13.5061 58.8966 9.62147 58.7659 5.76367 57.8423" stroke="#061922" stroke-width="2.3" stroke-linecap="round" stroke-linejoin="round"/>
<path d="M67.7637 55C67.7637 55 67.2301 49.6856 65.7637 47" stroke="#061922" stroke-width="2.3" stroke-linecap="round" stroke-linejoin="round"/>
<path d="M42.7637 44H54.7637" stroke="#40464E" stroke-width="2.4" stroke-linecap="round" stroke-linejoin="round"/>
<path d="M42.7637 49H54.7637" stroke="#40464E" stroke-width="2.4" stroke-linecap="round" stroke-linejoin="round"/>
<path d="M24.5159 39.8223C22.4429 40.1378 20.1233 41.4601 17.9316 40.8337C17.3106 40.6528 16.685 40.147 16.7718 39.4557C17.1782 36.1105 23.831 35.099 26.452 35.0016C27.5022 34.9645 28.525 35.5815 28.7259 36.6301C28.9405 37.7622 28.2145 38.8015 27.1963 39.2191C26.3287 39.5763 25.4429 39.6877 24.5205 39.8269L24.5159 39.8223Z" fill="white"/>
<path d="M23.7351 84.8606C21.5382 84.8606 19.4878 83.8816 18.1102 82.1706C17.3184 81.1915 17.474 79.755 18.4535 78.9635C18.8608 78.6387 19.3688 78.4603 19.886 78.4603C20.5817 78.4603 21.227 78.7714 21.6618 79.3067C22.1698 79.938 22.925 80.2994 23.7351 80.2994H24.1333L26.8656 74.32C27.2226 73.5377 28.0098 73.0344 28.8657 73.0344C29.1815 73.0344 29.4881 73.103 29.781 73.2357C30.884 73.739 31.3737 75.0474 30.8703 76.15L28.9709 80.304H47.8959L45.9966 76.15C45.754 75.6147 45.7311 75.0199 45.9371 74.4664C46.143 73.9174 46.5504 73.4782 47.0859 73.2357C47.3742 73.103 47.6808 73.039 47.9966 73.039C48.8571 73.039 49.6397 73.5422 49.9967 74.3246L52.729 80.304H53.1272C53.9373 80.304 54.6925 79.9426 55.2005 79.3112C55.6353 78.7714 56.2806 78.4603 56.9763 78.4603C57.4935 78.4603 58.0061 78.6387 58.4088 78.9681C58.8848 79.3478 59.1777 79.8922 59.2464 80.5007C59.315 81.1092 59.1365 81.6993 58.7521 82.1751C57.3745 83.8862 55.3241 84.8652 53.1272 84.8652H23.7351V84.8606Z" fill="#65686D"/>
<path d="M47.9963 74.1785C48.3991 74.1785 48.779 74.4072 48.9575 74.7961L51.7768 80.9631C51.85 81.1186 51.8729 81.2833 51.8683 81.448H53.1315C54.2894 81.448 55.3696 80.931 56.0973 80.0298C56.3215 79.7507 56.6511 79.6043 56.9806 79.6043C57.2323 79.6043 57.484 79.6867 57.6946 79.8559C58.1843 80.2494 58.2621 80.9676 57.8639 81.4526C56.7014 82.8937 54.9759 83.7172 53.1269 83.7172H23.7348C21.8858 83.7172 20.1603 82.8937 18.9978 81.4526C18.6042 80.9631 18.682 80.2494 19.1717 79.8559C19.3823 79.6867 19.634 79.6043 19.8857 79.6043C20.2198 79.6043 20.5493 79.7507 20.7736 80.0252C21.5013 80.9265 22.5814 81.4434 23.7394 81.4434H25.0026C24.9934 81.2833 25.0209 81.1186 25.0941 80.9585L27.9134 74.7915C28.0919 74.4026 28.4718 74.1739 28.8745 74.1739C29.021 74.1739 29.172 74.2059 29.3139 74.27C29.8448 74.5124 30.0782 75.1392 29.8356 75.6699L27.1994 81.4434H49.6852L47.0489 75.6699C46.8064 75.1392 47.0398 74.5124 47.5707 74.27C47.7126 74.2059 47.8636 74.1739 48.0101 74.1739M47.9963 71.891C47.5158 71.891 47.0489 71.9916 46.6096 72.1929C44.9345 72.9569 44.193 74.947 44.9574 76.6215L46.1153 79.156H30.751L31.9089 76.6215C32.6733 74.9425 31.9318 72.9569 30.2567 72.1929C29.8173 71.9916 29.3505 71.891 28.8699 71.891C27.5656 71.891 26.371 72.6596 25.8264 73.8445L23.4144 79.124C23.0757 79.0508 22.7782 78.8678 22.554 78.5887C21.8995 77.7789 20.9292 77.3123 19.8857 77.3123C19.1076 77.3123 18.3433 77.5822 17.7392 78.0671C16.2655 79.2521 16.0366 81.416 17.222 82.8845C18.8193 84.8655 21.1947 86.0001 23.7394 86.0001H53.1361C55.6808 86.0001 58.0561 84.8655 59.6534 82.8845C60.2255 82.1709 60.491 81.2787 60.3949 80.3683C60.2988 79.4579 59.8502 78.6436 59.1408 78.0671C58.5367 77.5776 57.7724 77.3077 56.9897 77.3077C55.9462 77.3077 54.9759 77.7744 54.3215 78.5841C54.1018 78.8586 53.7997 79.0416 53.461 79.1148L51.0491 73.8353C50.509 72.6504 49.3145 71.8818 48.0055 71.8818L47.9963 71.891Z" fill="#061922"/>
</g>
<defs>
<clipPath id="clip0_467_8525">
<rect width="100" height="100" fill="white"/>
</clipPath>
</defs>
</svg>
