<svg width="205" height="205" viewBox="0 0 205 205" fill="none" xmlns="http://www.w3.org/2000/svg">
<path opacity="0.7" d="M103 60C103 60 97.4933 53.6879 91.4194 45.4054C85.3455 37.1186 81 30 81 30C81 30 86.5067 36.3121 92.5806 44.5946C98.6545 52.8771 103 60 103 60Z" fill="#FEFEFE"/>
<path opacity="0.4" d="M52 115.08C52 115.08 42.7346 104.354 32.5231 90.2709C22.3115 76.1877 15 64.0801 15 64.0801C15 64.0801 24.2654 74.8061 34.4769 88.8892C44.7008 102.972 52 115.08 52 115.08Z" fill="#FEFEFE"/>
<path opacity="0.8" d="M149 92C149 92 141.24 82.9526 132.678 71.0823C124.117 59.2121 118 49 118 49C118 49 125.76 58.0474 134.322 69.9177C142.877 81.7945 149 92 149 92Z" fill="#FEFEFE"/>
<path opacity="0.7" d="M44.6699 124.65C44.6699 124.65 36.0499 115.36 27.0299 102.76C18.0099 90.15 11.9999 79 11.9999 79C11.9999 79 20.6199 88.29 29.6399 100.89C38.6599 113.5 44.6699 124.65 44.6699 124.65Z" fill="#FEFEFE"/>
<path opacity="0.8" d="M39 148C39 148 31.0845 139.453 22.8017 127.86C14.5188 116.258 9 106 9 106C9 106 16.9155 114.547 25.1983 126.14C33.4812 137.742 39 148 39 148Z" fill="#FEFEFE"/>
<path opacity="0.6" d="M132 80C132 80 124.348 71.8598 116.342 60.8193C108.335 49.77 103 40 103 40C103 40 110.652 48.1402 118.658 59.1807C126.665 70.23 132 80 132 80Z" fill="#FEFEFE"/>
</svg>
