<svg width="205" height="205" viewBox="0 0 205 205" fill="none" xmlns="http://www.w3.org/2000/svg">
<path opacity="0.65" d="M78 64C78 64 83.5067 57.6879 89.5806 49.4054C95.6545 41.1186 100 34 100 34C100 34 94.4933 40.3121 88.4194 48.5946C82.3455 56.8771 78 64 78 64Z" fill="#FEFEFE"/>
<path opacity="0.6" d="M133 105.08C133 105.08 142.265 94.3541 152.477 80.2709C162.688 66.1877 170 54.0801 170 54.0801C170 54.0801 160.735 64.8061 150.523 78.8892C140.299 92.9724 133 105.08 133 105.08Z" fill="#FEFEFE"/>
<path opacity="0.7" d="M38 95C38 95 45.7599 85.9526 54.3217 74.0823C62.8835 62.2121 69 52 69 52C69 52 61.2401 61.0474 52.6783 72.9177C44.1231 84.7945 38 95 38 95Z" fill="#FEFEFE"/>
<path opacity="0.54" d="M163 113C163 113 170.124 105.47 177.579 95.2578C185.033 85.0372 190 76 190 76C190 76 182.876 83.5297 175.421 93.7422C167.967 103.963 163 113 163 113Z" fill="#FEFEFE"/>
<path opacity="0.8" d="M152 141C152 141 159.916 132.453 168.198 120.86C176.481 109.258 182 99 182 99C182 99 174.084 107.547 165.802 119.14C157.519 130.742 152 141 152 141Z" fill="#FEFEFE"/>
<path opacity="0.8" d="M56 80C56 80 63.6517 71.8598 71.6584 60.8193C79.6651 49.77 85 40 85 40C85 40 77.3483 48.1402 69.3416 59.1807C61.3349 70.23 56 80 56 80Z" fill="#FEFEFE"/>
</svg>
